<?xml version="1.0" encoding="iso-8859-1"?>
<!-- Generator: Adobe Illustrator 23.0.5, SVG Export Plug-In . SVG Version: 6.00 Build 0)  -->
<svg version="1.1" xmlns="http://www.w3.org/2000/svg" xmlns:xlink="http://www.w3.org/1999/xlink" x="0px" y="0px"
	 viewBox="0 0 492 492" style="enable-background:new 0 0 492 492;" xml:space="preserve">
<g id="Master_Layer_2">
</g>
<g id="Layer_1">
	<g>
		<g>
			<g>
				<g>
					<g>
						<path style="fill-rule:evenodd;clip-rule:evenodd;fill:#212121;" d="M271.652,334.688c-4.728,0-9.36-1.176-13.896-2.304
							c-4.104-1.032-7.968-2.016-11.496-2.016s-7.416,0.984-11.496,2.016c-6.288,1.584-12.768,3.216-19.416,1.728
							c-6.912-1.56-12.384-6.168-17.184-10.2c-3.144-2.64-6.096-5.112-9.072-6.552c-3.096-1.488-6.936-2.28-11.016-3.12
							c-6.408-1.32-13.032-2.664-18.456-7.008c-5.448-4.344-8.232-10.512-10.944-16.488c-1.704-3.768-3.336-7.344-5.448-10.008
							c-2.088-2.616-5.208-4.968-8.496-7.464c-4.992-3.792-10.656-8.064-13.704-14.4c-3-6.216-2.832-12.96-2.688-19.464
							c0.096-4.176,0.192-8.136-0.576-11.52c-0.72-3.192-2.472-6.6-4.32-10.2c-2.88-5.616-6.144-11.976-6.144-19.128
							c0-7.152,3.264-13.512,6.144-19.128c1.848-3.624,3.6-7.032,4.32-10.2c0.768-3.384,0.672-7.344,0.576-11.52
							c-0.144-6.528-0.312-13.248,2.688-19.464c3.048-6.312,8.712-10.608,13.704-14.4c3.288-2.496,6.384-4.848,8.496-7.464
							c2.112-2.664,3.744-6.216,5.448-10.008c2.712-5.976,5.496-12.144,10.944-16.488c5.424-4.32,12.048-5.688,18.456-7.008
							c4.08-0.84,7.92-1.632,11.016-3.12c2.976-1.44,5.952-3.936,9.072-6.552c4.824-4.056,10.272-8.64,17.184-10.2
							c6.648-1.512,13.152,0.12,19.416,1.728c4.104,1.032,7.968,2.016,11.496,2.016s7.416-0.984,11.496-2.016
							c6.288-1.584,12.768-3.216,19.416-1.728c6.912,1.56,12.384,6.168,17.184,10.2c3.144,2.64,6.096,5.112,9.072,6.552
							c3.096,1.488,6.936,2.28,11.016,3.12c6.408,1.32,13.032,2.664,18.456,7.008c5.448,4.344,8.232,10.512,10.944,16.488
							c1.704,3.768,3.336,7.344,5.448,10.008c2.088,2.616,5.208,4.968,8.496,7.464c4.992,3.792,10.656,8.064,13.704,14.4
							c3,6.216,2.832,12.96,2.688,19.464c-0.096,4.176-0.192,8.136,0.576,11.52c0.72,3.192,2.472,6.6,4.32,10.2
							c2.88,5.616,6.144,11.976,6.144,19.128c0,7.152-3.264,13.512-6.144,19.128c-1.848,3.624-3.6,7.032-4.32,10.2
							c-0.768,3.384-0.672,7.344-0.576,11.52c0.144,6.528,0.312,13.248-2.688,19.464c-3.048,6.312-8.712,10.608-13.704,14.4
							c-3.288,2.496-6.384,4.848-8.496,7.464c-2.112,2.664-3.744,6.216-5.448,10.008c-2.712,5.976-5.496,12.144-10.944,16.488
							c-5.424,4.32-12.048,5.688-18.456,7.008c-4.08,0.84-7.92,1.632-11.016,3.12c-2.976,1.44-5.952,3.936-9.072,6.552
							c-4.824,4.056-10.272,8.64-17.184,10.2C275.324,334.52,273.476,334.688,271.652,334.688L271.652,334.688z M246.26,318.872
							c4.968,0,9.72,1.2,14.328,2.352c5.184,1.32,10.104,2.544,14.064,1.656c4.2-0.96,8.16-4.272,12.36-7.8
							c3.528-2.976,7.2-6.048,11.472-8.112c4.368-2.112,9.12-3.072,13.704-4.032c5.304-1.08,10.32-2.112,13.584-4.728
							c3.288-2.616,5.4-7.296,7.632-12.24c1.92-4.248,3.912-8.664,6.936-12.432c3-3.744,6.816-6.648,10.536-9.456
							c4.344-3.288,8.448-6.384,10.296-10.224c1.8-3.72,1.68-8.808,1.56-14.208c-0.096-4.704-0.216-9.552,0.864-14.328
							c1.056-4.584,3.216-8.808,5.304-12.912c2.496-4.896,4.872-9.504,4.872-13.872c0-4.368-2.376-9-4.872-13.872
							c-2.088-4.08-4.248-8.304-5.304-12.912c-1.08-4.776-0.984-9.624-0.864-14.328c0.12-5.4,0.24-10.488-1.56-14.208
							c-1.848-3.816-5.952-6.936-10.296-10.224c-3.696-2.808-7.536-5.712-10.536-9.456c-3.024-3.768-5.016-8.184-6.936-12.432
							c-2.232-4.944-4.344-9.624-7.632-12.24c-3.264-2.616-8.28-3.624-13.584-4.728c-4.584-0.936-9.336-1.92-13.704-4.032
							c-4.272-2.064-7.944-5.136-11.472-8.112c-4.2-3.528-8.16-6.84-12.36-7.8c-3.96-0.888-8.856,0.336-14.064,1.656
							C255.98,77,251.228,78.2,246.26,78.2c-4.968,0-9.72-1.2-14.328-2.352c-5.184-1.32-10.104-2.544-14.064-1.656
							c-4.2,0.96-8.16,4.272-12.36,7.8c-3.528,2.976-7.2,6.048-11.472,8.112c-4.368,2.112-9.12,3.072-13.704,4.032
							c-5.304,1.08-10.32,2.112-13.584,4.728c-3.288,2.616-5.4,7.296-7.632,12.24c-1.92,4.248-3.912,8.664-6.936,12.432
							c-3,3.744-6.816,6.648-10.536,9.456c-4.344,3.288-8.448,6.384-10.296,10.224c-1.8,3.72-1.68,8.808-1.56,14.208
							c0.096,4.704,0.216,9.552-0.864,14.328c-1.056,4.584-3.216,8.808-5.304,12.912c-2.496,4.896-4.872,9.504-4.872,13.872
							c0,4.368,2.376,9,4.872,13.872c2.088,4.08,4.248,8.304,5.304,12.912c1.08,4.776,0.984,9.624,0.864,14.328
							c-0.12,5.4-0.24,10.488,1.56,14.208c1.848,3.816,5.952,6.936,10.296,10.224c3.696,2.808,7.536,5.712,10.536,9.456
							c3.024,3.768,5.016,8.184,6.936,12.432c2.232,4.944,4.344,9.624,7.632,12.24c3.264,2.616,8.28,3.624,13.584,4.728
							c4.584,0.936,9.336,1.92,13.704,4.032c4.272,2.064,7.944,5.136,11.472,8.112c4.2,3.528,8.16,6.84,12.36,7.8
							c3.96,0.888,8.856-0.336,14.064-1.656C236.54,320.072,241.292,318.872,246.26,318.872z"/>
					</g>
				</g>
				<g>
					<g>
						<g>
							<path style="fill-rule:evenodd;clip-rule:evenodd;fill:#212121;" d="M246.26,283.16c-1.464,0-2.952-0.552-4.056-1.68
								l-65.88-65.88c-9.168-9.168-14.232-21.36-14.232-34.344s5.064-25.176,14.232-34.344c9.168-9.168,21.36-14.232,34.344-14.232
								s25.176,5.064,34.344,14.232l1.248,1.248l1.248-1.248c9.168-9.168,21.36-14.232,34.344-14.232
								c12.984,0,25.176,5.064,34.344,14.232l0,0c18.936,18.936,18.936,49.752,0,68.688l-65.88,65.88
								C249.212,282.584,247.724,283.16,246.26,283.16L246.26,283.16z M210.668,144.176c-9.912,0-19.2,3.864-26.208,10.848
								c-7.008,7.008-10.848,16.32-10.848,26.208c0,9.912,3.864,19.2,10.848,26.208l61.824,61.824l61.824-61.824
								c14.448-14.448,14.448-37.968,0-52.416c-7.008-7.008-16.32-10.848-26.208-10.848c-9.912,0-19.2,3.864-26.208,10.848
								l-5.328,5.328c-2.256,2.256-5.88,2.256-8.136,0l-5.328-5.328C229.868,148.04,220.556,144.176,210.668,144.176z"/>
						</g>
					</g>
				</g>
				<g>
					<g>
						<g>
							<path style="fill-rule:evenodd;clip-rule:evenodd;fill:#212121;" d="M245.468,228.92c-1.464,0-2.952-0.552-4.056-1.68
								l-24.624-24.624c-2.256-2.256-2.256-5.88,0-8.136c2.256-2.256,5.88-2.256,8.136,0l24.6,24.6c2.256,2.256,2.256,5.88,0,8.136
								C248.396,228.344,246.932,228.92,245.468,228.92z"/>
						</g>
					</g>
					<g>
						<g>
							<path style="fill-rule:evenodd;clip-rule:evenodd;fill:#212121;" d="M245.468,228.92c-1.464,0-2.952-0.552-4.056-1.68
								c-2.256-2.256-2.256-5.88,0-8.136l44.136-44.136c2.256-2.256,5.88-2.256,8.136,0s2.256,5.88,0,8.136l-44.136,44.136
								C248.396,228.344,246.932,228.92,245.468,228.92z"/>
						</g>
					</g>
				</g>
				<g>
					<g>
						<g>
							<path style="fill-rule:evenodd;clip-rule:evenodd;fill:#212121;" d="M197.516,431.072c-0.192,0-0.408,0-0.624-0.024
								c-2.376-0.264-4.368-1.968-4.968-4.272L177.836,372.2l-52.08,21.36c-2.208,0.912-4.776,0.336-6.408-1.416
								c-1.632-1.752-1.992-4.344-0.912-6.48l41.184-82.056c1.416-2.832,4.872-3.984,7.728-2.568
								c2.832,1.416,3.984,4.872,2.568,7.728l-34.296,68.328l43.968-18.024c1.536-0.624,3.264-0.576,4.752,0.168
								c1.488,0.744,2.568,2.088,3,3.696l11.904,46.104l41.856-83.4c1.416-2.832,4.872-3.984,7.728-2.568
								c2.832,1.416,3.984,4.872,2.568,7.728l-48.744,97.104C201.668,429.848,199.676,431.072,197.516,431.072z"/>
						</g>
					</g>
					<g>
						<g>
							<path style="fill-rule:evenodd;clip-rule:evenodd;fill:#212121;" d="M295.004,431.072c-2.16,0-4.152-1.224-5.136-3.168
								L241.124,330.8c-1.416-2.832-0.288-6.288,2.568-7.728c2.832-1.416,6.288-0.288,7.728,2.568l41.856,83.4l11.904-46.104
								c0.408-1.608,1.512-2.952,3-3.696c1.488-0.744,3.216-0.816,4.752-0.168l43.968,18.024l-33.768-67.272
								c-1.416-2.832-0.288-6.288,2.568-7.728c2.832-1.416,6.288-0.288,7.728,2.568l40.656,80.976c1.08,2.136,0.72,4.728-0.912,6.48
								s-4.176,2.328-6.408,1.416l-52.08-21.36l-14.088,54.576c-0.6,2.328-2.568,4.032-4.968,4.272
								C295.412,431.048,295.196,431.072,295.004,431.072z"/>
						</g>
					</g>
				</g>
			</g>
		</g>
	</g>
</g>
</svg>
